<?xml version="1.0" encoding="UTF-8" standalone="no"?>
<!-- Created with Inkscape (http://www.inkscape.org/) -->

<svg
   width="1148.4137"
   height="326.46832"
   viewBox="0 0 1148.4137 326.46832"
   version="1.1"
   id="svg1"
   xml:space="preserve"
   sodipodi:docname="path1.svg"
   inkscape:version="1.4 (e7c3feb100, 2024-10-09)"
   xmlns:inkscape="http://www.inkscape.org/namespaces/inkscape"
   xmlns:sodipodi="http://sodipodi.sourceforge.net/DTD/sodipodi-0.dtd"
   xmlns="http://www.w3.org/2000/svg"
   xmlns:svg="http://www.w3.org/2000/svg"><sodipodi:namedview
     id="namedview1"
     pagecolor="#505050"
     bordercolor="#eeeeee"
     borderopacity="1"
     inkscape:showpageshadow="0"
     inkscape:pageopacity="0"
     inkscape:pagecheckerboard="0"
     inkscape:deskcolor="#505050"
     inkscape:zoom="0.85770485"
     inkscape:cx="573.6239"
     inkscape:cy="163.80926"
     inkscape:window-width="1088"
     inkscape:window-height="703"
     inkscape:window-x="0"
     inkscape:window-y="0"
     inkscape:window-maximized="1"
     inkscape:current-layer="svg1" /><defs
     id="defs1"><rect
       x="697.43964"
       y="244.88564"
       width="432.47141"
       height="333.20837"
       id="rect2" /><rect
       x="697.43964"
       y="244.88564"
       width="432.47141"
       height="333.20837"
       id="rect2-7" /></defs><g
     id="layer1"><path
       style="fill:#a4d5a6;fill-opacity:1;stroke-width:0.946599"
       d="m 0,231.80843 92.135193,94.65988 H 191.6303 L 0,137.14856 Z"
       id="path1" /><path
       style="fill:#a4d5a6;fill-opacity:1;stroke-width:0.946599"
       d="M 0,0 V 53.650156 L 276.72076,326.46831 h 99.49507 L 49.747551,0 Z"
       id="path1-5" /><path
       style="fill:#7cb342;fill-opacity:1;stroke-width:0.946599"
       d="M 144.30639,0 376.11482,231.80843 H 475.6099 L 243.80148,0 Z"
       id="path1-5-7" /><path
       style="fill:#7cb342;fill-opacity:1;stroke-width:0.946599"
       d="m 329.30508,0 231.8084,231.80843 h 99.49511 L 428.80017,0 Z"
       id="path1-5-7-6-9" /><path
       style="fill:#4cae4f;fill-opacity:1;stroke-width:0.946599"
       d="m 523.46007,0 137.14852,137.14856 h 99.49513 L 622.95516,0 Z"
       id="path1-5-7-3" /><path
       style="fill:#4cae4f;fill-opacity:1;stroke-width:0.946599"
       d="M 717.61507,0 854.7636,137.14856 h 99.49514 L 817.11016,0 Z"
       id="path1-5-7-6-7" /><path
       style="fill:#4cae4f;fill-opacity:1;stroke-width:0.946599"
       d="m 908.73481,0 140.18379,137.14856 h 99.4951 L 1011.2652,0 Z"
       id="path1-5-7-6-9-5" /><path
       style="font-family:Enixe;-inkscape-font-specification:Enixe;letter-spacing:0.841532px;white-space:pre;fill:#7cb342;stroke:#7cb342"
       d="m 705.33545,250.41677 v -1.308 h -7.896 v 1.308 h 6.036 l -1.32,1.32 h -4.716 v 3.936 h 7.896 v -1.308 l -1.98,-1.98 z m -1.86,3.948 h -4.716 v -1.32 h 3.396 z m 4.14153,1.308 h 1.32 v -6.564 h -1.32 z m 10.04553,-6.564 h -6.456 v 5.136 l 1.428,1.428 h 6.468 v -5.136 z m 0.12,5.256 h -4.596 l -0.66,-0.66 v -3.288 h 4.596 l 0.66,0.66 z"
       id="text1"
       transform="matrix(12.233345,0,0,10.96724,-8143.8003,-2483.3479)"
       aria-label="BIO" /><path
       style="font-family:Enixe;-inkscape-font-specification:Enixe;letter-spacing:2.46137px;white-space:pre;fill:#4cae4f;stroke:#4cae4f"
       d="m 704.00345,249.10877 v 4.812 l -2.628,-2.316 -2.628,2.316 v -4.812 h -1.32 v 6.564 h 1.32 l 2.628,-2.316 2.628,2.316 h 1.32 v -6.564 z m 11.62938,6.564 h 1.476 l -3.288,-6.564 h -1.32 l -3.288,6.564 h 4.956 l -0.66,-1.308 h -2.16 l 1.812,-3.636 z m 10.65737,-6.564 v 3.312 l -2.436,1.944 h -0.384 l -2.436,-1.944 v -3.312 h -1.32 v 3.936 l 3.288,2.628 h 1.32 l 3.288,-2.628 v -3.936 z m 6.63737,6.564 h 6.468 v -1.308 h -5.916 l -0.66,-0.66 v -0.66 h 5.256 v -1.308 h -6.576 v 2.508 z m -1.428,-5.256 h 7.896 v -1.308 h -7.896 z"
       id="text1-3"
       transform="matrix(11.355255,0,0,11.138616,-7253.2349,-2621.6554)"
       aria-label="WAVE" /></g></svg>
